{
  "accessors": [
    {
      "bufferView": 2,
      "componentType": 5126,
      "count": 65532,
      "max": [
        0.44991299510002136,
        0.4082080125808716,
        0.20412999391555786
      ],
      "min": [
        -0.13424399495124817,
        0.0941540002822876,
        0.12381400167942047
      ],
      "type": "VEC3"
    },
    {
      "bufferView": 2,
      "byteOffset": 786384,
      "componentType": 5126,
      "count": 65532,
      "max": [
        0.9999862909317017,
        0.9987584352493286,
        0.9999998807907104
      ],
      "min": [
        -0.9983119368553162,
        -0.999584972858429,
        -0.9999995231628418
      ],
      "type": "VEC3"
    },
    {
      "bufferView": 1,
      "componentType": 5126,
      "count": 65532,
      "max": [
        0.9995869994163513,
        0.9995880126953125
      ],
      "min": [
        0.0004130000015720725,
        0.0004119873046875
      ],
      "type": "VEC2"
    },
    {
      "bufferView": 1,
      "byteOffset": 524256,
      "componentType": 5126,
      "count": 65532,
      "max": [
        0.9995869994163513,
        0.9995880126953125
      ],
      "min": [
        0.0004130000015720725,
        0.0004119873046875
      ],
      "type": "VEC2"
    },
    {
      "bufferView": 1,
      "byteOffset": 1048512,
      "componentType": 5126,
      "count": 65532,
      "max": [
        0.9995869994163513,
        0.9995880126953125
      ],
      "min": [
        0.0004130000015720725,
        0.0004119873046875
      ],
      "type": "VEC2"
    },
    {
      "bufferView": 1,
      "byteOffset": 1572768,
      "componentType": 5126,
      "count": 65532,
      "max": [
        0.9995869994163513,
        0.9995880126953125
      ],
      "min": [
        0.0004130000015720725,
        0.0004119873046875
      ],
      "type": "VEC2"
    },
    {
      "bufferView": 0,
      "componentType": 5125,
      "count": 288615,
      "type": "SCALAR"
    },
    {
      "bufferView": 2,
      "byteOffset": 1572768,
      "componentType": 5126,
      "count": 65532,
      "max": [
        0.527184009552002,
        0.40830400586128235,
        0.2040960043668747
      ],
      "min": [
        -0.1558780074119568,
        -0.23349100351333618,
        0.1245340034365654
      ],
      "type": "VEC3"
    },
    {
      "bufferView": 2,
      "byteOffset": 2359152,
      "componentType": 5126,
      "count": 65532,
      "max": [
        0.9994940161705017,
        0.9996172189712524,
        0.9999980926513672
      ],
      "min": [
        -0.9999966621398926,
        -0.998735785484314,
        -0.9999986886978149
      ],
      "type": "VEC3"
    },
    {
      "bufferView": 1,
      "byteOffset": 2097024,
      "componentType": 5126,
      "count": 65532,
      "max": [
        0.9995869994163513,
        0.9995880126953125
      ],
      "min": [
        0.0004130000015720725,
        0.0004119873046875
      ],
      "type": "VEC2"
    },
    {
      "bufferView": 1,
      "byteOffset": 2621280,
      "componentType": 5126,
      "count": 65532,
      "max": [
        0.9995869994163513,
        0.9995880126953125
      ],
      "min": [
        0.0004130000015720725,
        0.0004119873046875
      ],
      "type": "VEC2"
    },
    {
      "bufferView": 1,
      "byteOffset": 3145536,
      "componentType": 5126,
      "count": 65532,
      "max": [
        0.9995869994163513,
        0.9995880126953125
      ],
      "min": [
        0.0004130000015720725,
        0.0004119873046875
      ],
      "type": "VEC2"
    },
    {
      "bufferView": 1,
      "byteOffset": 3669792,
      "componentType": 5126,
      "count": 65532,
      "max": [
        0.9995869994163513,
        0.9995880126953125
      ],
      "min": [
        0.0004130000015720725,
        0.0004119873046875
      ],
      "type": "VEC2"
    },
    {
      "bufferView": 0,
      "byteOffset": 1154460,
      "componentType": 5125,
      "count": 282984,
      "type": "SCALAR"
    },
    {
      "bufferView": 2,
      "byteOffset": 3145536,
      "componentType": 5126,
      "count": 65532,
      "max": [
        0.5221650004386902,
        0.062265001237392426,
        0.2067060023546219
      ],
      "min": [
        -0.0953579992055893,
        -0.40985599160194397,
        -0.15362800657749176
      ],
      "type": "VEC3"
    },
    {
      "bufferView": 2,
      "byteOffset": 3931920,
      "componentType": 5126,
      "count": 65532,
      "max": [
        1.0,
        1.0,
        1.0
      ],
      "min": [
        -1.0,
        -1.0,
        -0.9999998807907104
      ],
      "type": "VEC3"
    },
    {
      "bufferView": 1,
      "byteOffset": 4194048,
      "componentType": 5126,
      "count": 65532,
      "max": [
        0.9995869994163513,
        0.9995880126953125
      ],
      "min": [
        0.0004130000015720725,
        0.0004119873046875
      ],
      "type": "VEC2"
    },
    {
      "bufferView": 1,
      "byteOffset": 4718304,
      "componentType": 5126,
      "count": 65532,
      "max": [
        0.9995869994163513,
        0.9995880126953125
      ],
      "min": [
        0.0004130000015720725,
        0.0004119873046875
      ],
      "type": "VEC2"
    },
    {
      "bufferView": 1,
      "byteOffset": 5242560,
      "componentType": 5126,
      "count": 65532,
      "max": [
        0.9995869994163513,
        0.9995880126953125
      ],
      "min": [
        0.0004130000015720725,
        0.0004119873046875
      ],
      "type": "VEC2"
    },
    {
      "bufferView": 1,
      "byteOffset": 5766816,
      "componentType": 5126,
      "count": 65532,
      "max": [
        0.9995869994163513,
        0.9995880126953125
      ],
      "min": [
        0.0004130000015720725,
        0.0004119873046875
      ],
      "type": "VEC2"
    },
    {
      "bufferView": 0,
      "byteOffset": 2286396,
      "componentType": 5125,
      "count": 319500,
      "type": "SCALAR"
    },
    {
      "bufferView": 2,
      "byteOffset": 4718304,
      "componentType": 5126,
      "count": 65532,
      "max": [
        0.5059970021247864,
        0.318913996219635,
        0.1993190050125122
      ],
      "min": [
        -0.527184009552002,
        -0.40728801488876343,
        -0.2007569968700409
      ],
      "type": "VEC3"
    },
    {
      "bufferView": 2,
      "byteOffset": 5504688,
      "componentType": 5126,
      "count": 65532,
      "max": [
        0.9999996423721313,
        0.9999997615814209,
        0.9999997615814209
      ],
      "min": [
        -0.9999997615814209,
        -1.0,
        -0.9999998807907104
      ],
      "type": "VEC3"
    },
    {
      "bufferView": 1,
      "byteOffset": 6291072,
      "componentType": 5126,
      "count": 65532,
      "max": [
        0.9987620115280151,
        0.9995880126953125
      ],
      "min": [
        0.0004130000015720725,
        0.0004119873046875
      ],
      "type": "VEC2"
    },
    {
      "bufferView": 1,
      "byteOffset": 6815328,
      "componentType": 5126,
      "count": 65532,
      "max": [
        0.9987620115280151,
        0.9995880126953125
      ],
      "min": [
        0.0004130000015720725,
        0.0004119873046875
      ],
      "type": "VEC2"
    },
    {
      "bufferView": 1,
      "byteOffset": 7339584,
      "componentType": 5126,
      "count": 65532,
      "max": [
        0.9987620115280151,
        0.9995880126953125
      ],
      "min": [
        0.0004130000015720725,
        0.0004119873046875
      ],
      "type": "VEC2"
    },
    {
      "bufferView": 1,
      "byteOffset": 7863840,
      "componentType": 5126,
      "count": 65532,
      "max": [
        0.9987620115280151,
        0.9995880126953125
      ],
      "min": [
        0.0004130000015720725,
        0.0004119873046875
      ],
      "type": "VEC2"
    },
    {
      "bufferView": 0,
      "byteOffset": 3564396,
      "componentType": 5125,
      "count": 329628,
      "type": "SCALAR"
    },
    {
      "bufferView": 2,
      "byteOffset": 6291072,
      "componentType": 5126,
      "count": 58973,
      "max": [
        0.3326739966869354,
        0.05938899889588356,
        0.20674699544906616
      ],
      "min": [
        -0.09238500148057938,
        -0.40726301074028015,
        -0.2088260054588318
      ],
      "type": "VEC3"
    },
    {
      "bufferView": 2,
      "byteOffset": 6998748,
      "componentType": 5126,
      "count": 58973,
      "max": [
        1.0,
        1.0,
        1.0
      ],
      "min": [
        -1.0,
        -1.0,
        -1.0
      ],
      "type": "VEC3"
    },
    {
      "bufferView": 1,
      "byteOffset": 8388096,
      "componentType": 5126,
      "count": 58973,
      "max": [
        0.9995869994163513,
        0.9995880126953125
      ],
      "min": [
        0.0004130000015720725,
        0.0004119873046875
      ],
      "type": "VEC2"
    },
    {
      "bufferView": 1,
      "byteOffset": 8859880,
      "componentType": 5126,
      "count": 58973,
      "max": [
        0.9995869994163513,
        0.9995880126953125
      ],
      "min": [
        0.0004130000015720725,
        0.0004119873046875
      ],
      "type": "VEC2"
    },
    {
      "bufferView": 1,
      "byteOffset": 9331664,
      "componentType": 5126,
      "count": 58973,
      "max": [
        0.9995869994163513,
        0.9995880126953125
      ],
      "min": [
        0.0004130000015720725,
        0.0004119873046875
      ],
      "type": "VEC2"
    },
    {
      "bufferView": 1,
      "byteOffset": 9803448,
      "componentType": 5126,
      "count": 58973,
      "max": [
        0.9995869994163513,
        0.9995880126953125
      ],
      "min": [
        0.0004130000015720725,
        0.0004119873046875
      ],
      "type": "VEC2"
    },
    {
      "bufferView": 0,
      "byteOffset": 4882908,
      "componentType": 5125,
      "count": 279273,
      "type": "SCALAR"
    }
  ],
  "asset": {
    "extras": {
      "author": "ARTEL_3D (https://sketchfab.com/artel_3D)",
      "license": "CC-BY-4.0 (http://creativecommons.org/licenses/by/4.0/)",
      "source": "https://sketchfab.com/3d-models/computer-desk-retro-workspace-setup-a0c6b30458c5451abe394d4904a5475d",
      "title": "Computer Desk – Retro Workspace Setup"
    },
    "generator": "Sketchfab-16.72.0",
    "version": "2.0"
  },
  "bufferViews": [
    {
      "buffer": 0,
      "byteLength": 6000000,
      "name": "floatBufferViews",
      "target": 34963
    },
    {
      "buffer": 0,
      "byteLength": 10275232,
      "byteOffset": 6000000,
      "byteStride": 8,
      "name": "floatBufferViews",
      "target": 34962
    },
    {
      "buffer": 0,
      "byteLength": 7706424,
      "byteOffset": 16275232,
      "byteStride": 12,
      "name": "floatBufferViews",
      "target": 34962
    }
  ],
  "buffers": [
    {
      "byteLength": 23981656,
      "uri": "scene.bin"
    }
  ],
  "extensionsRequired": [
    "KHR_materials_pbrSpecularGlossiness"
  ],
  "extensionsUsed": [
    "KHR_materials_pbrSpecularGlossiness"
  ],
  "images": [
    {
      "uri": "textures/Material.001_diffuse.png"
    },
    {
      "uri": "textures/Material.001_specularGlossiness.png"
    }
  ],
  "materials": [
    {
      "alphaMode": "BLEND",
      "doubleSided": true,
      "extensions": {
        "KHR_materials_pbrSpecularGlossiness": {
          "diffuseFactor": [
            1.0,
            1.0,
            1.0,
            0.9278491987749271
          ],
          "diffuseTexture": {
            "index": 0
          },
          "glossinessFactor": 0.7906210819813244,
          "specularFactor": [
            0.0,
            0.0,
            0.0
          ],
          "specularGlossinessTexture": {
            "index": 1,
            "texCoord": 1
          }
        }
      },
      "name": "Material.001"
    }
  ],
  "meshes": [
    {
      "name": "Object_0",
      "primitives": [
        {
          "attributes": {
            "NORMAL": 1,
            "POSITION": 0,
            "TEXCOORD_0": 2,
            "TEXCOORD_1": 3,
            "TEXCOORD_2": 4,
            "TEXCOORD_3": 5
          },
          "indices": 6,
          "material": 0,
          "mode": 4
        }
      ]
    },
    {
      "name": "Object_1",
      "primitives": [
        {
          "attributes": {
            "NORMAL": 8,
            "POSITION": 7,
            "TEXCOORD_0": 9,
            "TEXCOORD_1": 10,
            "TEXCOORD_2": 11,
            "TEXCOORD_3": 12
          },
          "indices": 13,
          "material": 0,
          "mode": 4
        }
      ]
    },
    {
      "name": "Object_2",
      "primitives": [
        {
          "attributes": {
            "NORMAL": 15,
            "POSITION": 14,
            "TEXCOORD_0": 16,
            "TEXCOORD_1": 17,
            "TEXCOORD_2": 18,
            "TEXCOORD_3": 19
          },
          "indices": 20,
          "material": 0,
          "mode": 4
        }
      ]
    },
    {
      "name": "Object_3",
      "primitives": [
        {
          "attributes": {
            "NORMAL": 22,
            "POSITION": 21,
            "TEXCOORD_0": 23,
            "TEXCOORD_1": 24,
            "TEXCOORD_2": 25,
            "TEXCOORD_3": 26
          },
          "indices": 27,
          "material": 0,
          "mode": 4
        }
      ]
    },
    {
      "name": "Object_4",
      "primitives": [
        {
          "attributes": {
            "NORMAL": 29,
            "POSITION": 28,
            "TEXCOORD_0": 30,
            "TEXCOORD_1": 31,
            "TEXCOORD_2": 32,
            "TEXCOORD_3": 33
          },
          "indices": 34,
          "material": 0,
          "mode": 4
        }
      ]
    }
  ],
  "nodes": [
    {
      "children": [
        1
      ],
      "matrix": [
        1.0,
        0.0,
        0.0,
        0.0,
        0.0,
        2.220446049250313e-16,
        -1.0,
        0.0,
        0.0,
        1.0,
        2.220446049250313e-16,
        0.0,
        0.0,
        0.0,
        0.0,
        1.0
      ],
      "name": "Sketchfab_model"
    },
    {
      "children": [
        2
      ],
      "name": "root"
    },
    {
      "children": [
        3
      ],
      "matrix": [
        1.0,
        0.0,
        0.0,
        0.0,
        0.0,
        2.220446049250313e-16,
        1.0,
        0.0,
        0.0,
        -1.0,
        2.220446049250313e-16,
        0.0,
        0.0,
        0.0,
        0.0,
        1.0
      ],
      "name": "GLTF_SceneRootNode"
    },
    {
      "children": [
        4,
        5,
        6,
        7,
        8
      ],
      "matrix": [
        1.0,
        0.0,
        0.0,
        0.0,
        0.0,
        0.0,
        1.0,
        0.0,
        0.0,
        -1.0,
        0.0,
        0.0,
        0.0,
        0.0,
        0.0,
        1.0
      ],
      "name": "texture_pbr_v128_0"
    },
    {
      "mesh": 0,
      "name": "Object_4"
    },
    {
      "mesh": 1,
      "name": "Object_5"
    },
    {
      "mesh": 2,
      "name": "Object_6"
    },
    {
      "mesh": 3,
      "name": "Object_7"
    },
    {
      "mesh": 4,
      "name": "Object_8"
    }
  ],
  "samplers": [
    {
      "magFilter": 9729,
      "minFilter": 9987,
      "wrapS": 10497,
      "wrapT": 10497
    }
  ],
  "scene": 0,
  "scenes": [
    {
      "name": "Sketchfab_Scene",
      "nodes": [
        0
      ]
    }
  ],
  "textures": [
    {
      "sampler": 0,
      "source": 0
    },
    {
      "sampler": 0,
      "source": 1
    }
  ]
}
